# xmcd
#
# Track frame offsets:
#	150
#	16091
#	32559
#	48592
#	67712
#	82624
#	99703
#	112043
#	124819
#	139398
#	148881
#	163560
#	183476
#
# Disc length: 2577 seconds
#
# Revision: 1
# Processed by: cddbd v1.5.2PL0 Copyright (c) Steve Scherf et al.
# Submitted via: audiograbber 1.83.01
#
DISCID=ac0a0f0d
DTITLE=Catherine Britt - Dusty smiles and heartbreak cures
DYEAR=2002
DGENRE=Country
TTITLE0=46 Miles From Alice
TTITLE1=Nashville Blues
TTITLE2=Easy Living
TTITLE3=Dusty Smiles and Heartbreak Cu
TTITLE4=Help Me I'm Falling
TTITLE5=In The Pines
TTITLE6=Hillbilly Pickin' Ramblin' Gir
TTITLE7=It's Not Love (But It's Not Ba
TTITLE8=Learning To Forgive My Heart
TTITLE9=That Don't Bother Me!
TTITLE10=Move It on Over
TTITLE11=Drive in movie
TTITLE12=Big Rock Candy Mountains
EXTD=
EXTT0=
EXTT1=
EXTT2=
EXTT3=
EXTT4=
EXTT5=
EXTT6=
EXTT7=
EXTT8=
EXTT9=
EXTT10=
EXTT11=
EXTT12=
PLAYORDER=
